<svg width="35" height="35" viewBox="0 0 35 35" fill="none" xmlns="http://www.w3.org/2000/svg">
<circle cx="17.5001" cy="17.5" r="17.5" fill="black"/>
<path d="M24.3751 16.5117C23.9811 16.3387 23.5554 16.2496 23.1251 16.25L11.8751 16.25C11.0465 16.2509 10.2522 16.5804 9.66634 17.1663C9.08048 17.7521 8.75096 18.5465 8.75008 19.375L8.75008 23.75C8.75008 23.9158 8.81592 24.0747 8.93313 24.1919C9.05034 24.3092 9.20932 24.375 9.37508 24.375C9.54084 24.375 9.69981 24.3092 9.81702 24.1919C9.93423 24.0747 10.0001 23.9158 10.0001 23.75L10.0001 23.4375C10.0012 23.355 10.0344 23.2761 10.0928 23.2177C10.1512 23.1594 10.23 23.1261 10.3126 23.125L24.6876 23.125C24.7701 23.1261 24.849 23.1594 24.9074 23.2177C24.9657 23.2761 24.999 23.355 25.0001 23.4375L25.0001 23.75C25.0001 23.9158 25.0659 24.0747 25.1831 24.1919C25.3003 24.3092 25.4593 24.375 25.6251 24.375C25.7908 24.375 25.9498 24.3092 26.067 24.1919C26.1842 24.0747 26.2501 23.9158 26.2501 23.75L26.2501 19.375C26.2495 18.7672 26.0719 18.1727 25.7389 17.6642C25.4059 17.1557 24.932 16.7552 24.3751 16.5117Z" fill="white"/>
<path d="M22.1876 10.625L12.8126 10.625C12.2324 10.625 11.676 10.8555 11.2658 11.2657C10.8555 11.6759 10.6251 12.2323 10.6251 12.8125L10.6251 15.625C10.625 15.6493 10.6306 15.6733 10.6414 15.695C10.6522 15.7167 10.668 15.7357 10.6874 15.7502C10.7068 15.7648 10.7294 15.7746 10.7533 15.7789C10.7772 15.7832 10.8018 15.7819 10.8251 15.775C11.1659 15.675 11.5192 15.625 11.8751 15.625L12.0401 15.625C12.0786 15.6253 12.1159 15.6113 12.1448 15.5858C12.1738 15.5603 12.1922 15.525 12.1967 15.4867C12.2308 15.1812 12.3761 14.899 12.605 14.694C12.8339 14.4889 13.1303 14.3754 13.4376 14.375L15.6251 14.375C15.9325 14.3752 16.2291 14.4886 16.4582 14.6937C16.6873 14.8988 16.8327 15.1811 16.8667 15.4867C16.8713 15.525 16.8897 15.5603 16.9186 15.5858C16.9475 15.6113 16.9848 15.6253 17.0234 15.625L17.9792 15.625C18.0177 15.6252 18.0549 15.6112 18.0837 15.5857C18.1125 15.5602 18.1308 15.5249 18.1351 15.4867C18.1691 15.1814 18.3143 14.8993 18.543 14.6943C18.7717 14.4892 19.0679 14.3756 19.3751 14.375L21.5626 14.375C21.87 14.3752 22.1666 14.4886 22.3957 14.6937C22.6248 14.8988 22.7702 15.1811 22.8042 15.4867C22.8088 15.525 22.8272 15.5603 22.8561 15.5858C22.885 15.6113 22.9223 15.6253 22.9609 15.625L23.1251 15.625C23.4809 15.625 23.8342 15.675 24.1751 15.775C24.1984 15.7817 24.2229 15.7829 24.2467 15.7785C24.2705 15.7742 24.293 15.7643 24.3124 15.7498C24.3318 15.7352 24.3475 15.7164 24.3584 15.6948C24.3693 15.6731 24.375 15.6492 24.3751 15.625L24.3751 12.8125C24.3751 12.2323 24.1446 11.6759 23.7344 11.2657C23.3241 10.8555 22.7677 10.625 22.1876 10.625Z" fill="white"/>
</svg>
