<svg width="131" height="35" viewBox="0 0 131 35" fill="none" xmlns="http://www.w3.org/2000/svg">
<circle cx="17.5001" cy="17.5" r="17.5" fill="black"/>
<path d="M24.3751 16.5117C23.9811 16.3387 23.5554 16.2496 23.1251 16.25L11.8751 16.25C11.0465 16.2509 10.2522 16.5804 9.66634 17.1663C9.08048 17.7521 8.75096 18.5465 8.75008 19.375L8.75008 23.75C8.75008 23.9158 8.81592 24.0747 8.93313 24.1919C9.05034 24.3092 9.20932 24.375 9.37508 24.375C9.54084 24.375 9.69981 24.3092 9.81702 24.1919C9.93423 24.0747 10.0001 23.9158 10.0001 23.75L10.0001 23.4375C10.0012 23.355 10.0344 23.2761 10.0928 23.2177C10.1512 23.1594 10.23 23.1261 10.3126 23.125L24.6876 23.125C24.7701 23.1261 24.849 23.1594 24.9074 23.2177C24.9657 23.2761 24.999 23.355 25.0001 23.4375L25.0001 23.75C25.0001 23.9158 25.0659 24.0747 25.1831 24.1919C25.3003 24.3092 25.4593 24.375 25.6251 24.375C25.7908 24.375 25.9498 24.3092 26.067 24.1919C26.1842 24.0747 26.2501 23.9158 26.2501 23.75L26.2501 19.375C26.2495 18.7672 26.0719 18.1727 25.7389 17.6642C25.4059 17.1557 24.932 16.7552 24.3751 16.5117V16.5117Z" fill="white"/>
<path d="M22.1876 10.625L12.8126 10.625C12.2324 10.625 11.676 10.8555 11.2658 11.2657C10.8555 11.6759 10.6251 12.2323 10.6251 12.8125L10.6251 15.625C10.625 15.6493 10.6306 15.6733 10.6414 15.695C10.6522 15.7167 10.668 15.7357 10.6874 15.7502C10.7068 15.7648 10.7294 15.7746 10.7533 15.7789C10.7772 15.7832 10.8018 15.7819 10.8251 15.775C11.1659 15.675 11.5192 15.625 11.8751 15.625L12.0401 15.625C12.0786 15.6253 12.1159 15.6113 12.1448 15.5858C12.1738 15.5603 12.1922 15.525 12.1967 15.4867C12.2308 15.1812 12.3761 14.899 12.605 14.694C12.8339 14.4889 13.1303 14.3754 13.4376 14.375L15.6251 14.375C15.9325 14.3752 16.2291 14.4886 16.4582 14.6937C16.6873 14.8988 16.8327 15.1811 16.8667 15.4867C16.8713 15.525 16.8897 15.5603 16.9186 15.5858C16.9475 15.6113 16.9849 15.6253 17.0234 15.625L17.9792 15.625C18.0177 15.6252 18.0549 15.6112 18.0837 15.5857C18.1125 15.5602 18.1308 15.5249 18.1351 15.4867C18.1691 15.1814 18.3143 14.8993 18.543 14.6943C18.7717 14.4892 19.0679 14.3756 19.3751 14.375L21.5626 14.375C21.87 14.3752 22.1666 14.4886 22.3957 14.6937C22.6248 14.8988 22.7702 15.1811 22.8042 15.4867C22.8088 15.525 22.8272 15.5603 22.8561 15.5858C22.885 15.6113 22.9223 15.6253 22.9609 15.625L23.1251 15.625C23.4809 15.625 23.8342 15.675 24.1751 15.775C24.1984 15.7817 24.2229 15.7829 24.2467 15.7785C24.2705 15.7742 24.293 15.7643 24.3124 15.7498C24.3318 15.7352 24.3475 15.7164 24.3584 15.6948C24.3693 15.6731 24.375 15.6492 24.3751 15.625L24.3751 12.8125C24.3751 12.2323 24.1446 11.6759 23.7344 11.2657C23.3241 10.8555 22.7677 10.625 22.1876 10.625V10.625Z" fill="white"/>
<path d="M49.8561 7.53385H53.2542L58.9369 23.1827L64.6053 7.53385H68.0178L60.2934 28.3228H57.5662L49.8561 7.53385ZM48.1427 7.53385H51.4695L52.0692 21.9119V28.3228H48.1427V7.53385ZM66.3901 7.53385H69.7312V28.3228H65.8047V21.9119L66.3901 7.53385Z" fill="black"/>
<path d="M81.6985 28.6083C80.5277 28.6083 79.4759 28.418 78.5431 28.0372C77.6102 27.6565 76.8154 27.1282 76.1586 26.4523C75.5113 25.767 75.0116 24.9722 74.6594 24.0679C74.3167 23.1541 74.1454 22.1737 74.1454 21.1266V20.5555C74.1454 19.3656 74.3167 18.2853 74.6594 17.3144C75.0021 16.3339 75.4876 15.4915 76.1158 14.7871C76.744 14.0827 77.496 13.5402 78.3717 13.1594C79.2475 12.7787 80.2136 12.5883 81.2702 12.5883C82.3648 12.5883 83.331 12.7739 84.1686 13.1451C85.0063 13.5069 85.7059 14.0209 86.2675 14.6872C86.8291 15.3535 87.2527 16.1531 87.5383 17.0859C87.8238 18.0092 87.9666 19.0325 87.9666 20.1557V21.7406H75.8588V19.142H84.2543V18.8564C84.2353 18.2567 84.121 17.7094 83.9116 17.2144C83.7022 16.7099 83.3786 16.3101 82.9407 16.015C82.5029 15.7104 81.9365 15.5581 81.2416 15.5581C80.68 15.5581 80.1898 15.6819 79.771 15.9294C79.3617 16.1673 79.019 16.51 78.743 16.9574C78.4764 17.3953 78.2765 17.9188 78.1433 18.528C78.01 19.1372 77.9434 19.813 77.9434 20.5555V21.1266C77.9434 21.7739 78.0291 22.3736 78.2004 22.9257C78.3812 23.4777 78.643 23.9584 78.9857 24.3677C79.3379 24.7675 79.7567 25.0816 80.2422 25.3101C80.7371 25.529 81.2987 25.6385 81.927 25.6385C82.717 25.6385 83.4309 25.4862 84.0687 25.1816C84.716 24.8675 85.2776 24.4058 85.7535 23.7966L87.6525 25.767C87.3289 26.2429 86.891 26.6998 86.3389 27.1377C85.7963 27.5756 85.1396 27.9325 84.3685 28.2086C83.5975 28.4751 82.7075 28.6083 81.6985 28.6083Z" fill="black"/>
<path d="M91.7954 6.3916H95.5791V24.9103L95.2079 28.3228H91.7954V6.3916ZM105.517 20.4413V20.7411C105.517 21.8929 105.388 22.9495 105.131 23.9108C104.884 24.8722 104.508 25.7051 104.003 26.4095C103.499 27.1044 102.87 27.6469 102.119 28.0372C101.376 28.418 100.505 28.6083 99.5056 28.6083C98.5537 28.6083 97.7256 28.4227 97.0212 28.0515C96.3264 27.6803 95.741 27.1567 95.265 26.4809C94.7891 25.7956 94.4083 24.9912 94.1228 24.0679C93.8372 23.1351 93.623 22.1166 93.4803 21.0124V20.1985C93.623 19.0848 93.8372 18.0663 94.1228 17.143C94.4083 16.2197 94.7891 15.4154 95.265 14.73C95.741 14.0447 96.3264 13.5164 97.0212 13.1451C97.7161 12.7739 98.5347 12.5883 99.4771 12.5883C100.486 12.5883 101.367 12.7834 102.119 13.1737C102.88 13.5545 103.508 14.097 104.003 14.8014C104.508 15.4963 104.884 16.3244 105.131 17.2858C105.388 18.2377 105.517 19.2895 105.517 20.4413ZM101.733 20.7411V20.4413C101.733 19.7845 101.681 19.1658 101.576 18.5851C101.471 17.9949 101.3 17.4762 101.062 17.0288C100.824 16.5814 100.5 16.2292 100.091 15.9722C99.6817 15.7152 99.1677 15.5867 98.549 15.5867C97.9588 15.5867 97.4543 15.6867 97.0355 15.8865C96.6262 16.0864 96.2835 16.3625 96.0075 16.7147C95.741 17.0669 95.5315 17.4809 95.3792 17.9569C95.2365 18.4328 95.1413 18.9468 95.0937 19.4989V21.7263C95.1603 22.4592 95.3174 23.1208 95.5649 23.711C95.8123 24.2916 96.1788 24.7533 96.6643 25.0959C97.1593 25.4386 97.797 25.6099 98.5775 25.6099C99.1867 25.6099 99.696 25.491 100.105 25.253C100.515 25.0055 100.838 24.6628 101.076 24.225C101.314 23.7776 101.481 23.2588 101.576 22.6686C101.681 22.0785 101.733 21.436 101.733 20.7411Z" fill="black"/>
<path d="M116.513 28.6083C115.342 28.6083 114.291 28.418 113.358 28.0372C112.425 27.6565 111.63 27.1282 110.973 26.4523C110.326 25.767 109.826 24.9722 109.474 24.0679C109.131 23.1541 108.96 22.1737 108.96 21.1266V20.5555C108.96 19.3656 109.131 18.2853 109.474 17.3144C109.817 16.3339 110.302 15.4915 110.93 14.7871C111.559 14.0827 112.311 13.5402 113.186 13.1594C114.062 12.7787 115.028 12.5883 116.085 12.5883C117.179 12.5883 118.146 12.7739 118.983 13.1451C119.821 13.5069 120.521 14.0209 121.082 14.6872C121.644 15.3535 122.067 16.1531 122.353 17.0859C122.638 18.0092 122.781 19.0325 122.781 20.1557V21.7406H110.673V19.142H119.069V18.8564C119.05 18.2567 118.936 17.7094 118.726 17.2144C118.517 16.7099 118.193 16.3101 117.755 16.015C117.317 15.7104 116.751 15.5581 116.056 15.5581C115.495 15.5581 115.004 15.6819 114.586 15.9294C114.176 16.1673 113.834 16.51 113.558 16.9574C113.291 17.3953 113.091 17.9188 112.958 18.528C112.825 19.1372 112.758 19.813 112.758 20.5555V21.1266C112.758 21.7739 112.844 22.3736 113.015 22.9257C113.196 23.4777 113.458 23.9584 113.8 24.3677C114.152 24.7675 114.571 25.0816 115.057 25.3101C115.552 25.529 116.113 25.6385 116.742 25.6385C117.532 25.6385 118.246 25.4862 118.883 25.1816C119.531 24.8675 120.092 24.4058 120.568 23.7966L122.467 25.767C122.143 26.2429 121.706 26.6998 121.154 27.1377C120.611 27.5756 119.954 27.9325 119.183 28.2086C118.412 28.4751 117.522 28.6083 116.513 28.6083Z" fill="black"/>
<path d="M130.622 6.3916V28.3228H126.838V6.3916H130.622Z" fill="black"/>
</svg>
