<svg width="145" height="36" viewBox="0 0 145 36" fill="none" xmlns="http://www.w3.org/2000/svg">
<circle cx="18.156" cy="17.6637" r="17.5" fill="black"/>
<g clip-path="url(#clip0_19_27)">
<path d="M15.3732 22.2289L15.7262 15.4911L19.7118 15.5561L19.8495 22.3068C20.2085 22.3898 20.4634 22.7088 20.4665 23.0778L20.7168 27.256C20.7471 27.7816 20.4093 28.2234 19.9864 28.2165L15.0455 28.1334C14.6202 28.124 14.3042 27.6789 14.3444 27.1471L14.7161 22.9937C14.7253 22.6152 14.9997 22.2957 15.3728 22.2289L15.3732 22.2289Z" fill="white"/>
<path d="M14.3406 8.50378L20.9513 8.60202C21.2156 8.60815 21.4684 8.49621 21.6418 8.29725C22.0015 7.85946 22.5422 7.6112 23.109 7.62349C24.1431 7.64158 24.9679 8.49375 24.9522 9.5279L24.9141 11.8659C24.8942 12.8993 24.0433 13.7229 23.0097 13.7091C22.4446 13.7011 21.9147 13.4366 21.5677 12.9903C21.4015 12.7852 21.1512 12.6651 20.8875 12.6632C20.7404 12.6608 20.5985 12.7168 20.4929 12.819C20.3874 12.9212 20.3267 13.0612 20.3243 13.2083L20.3015 14.6081L15.1686 14.5244L15.1989 13.1125C15.2019 12.966 15.1459 12.8241 15.0443 12.7192C14.9427 12.6142 14.8027 12.5536 14.6562 12.5518L10.6414 12.4863L10.6554 12.0708C10.6729 11.1102 11.0702 10.1947 11.7611 9.52598C12.452 8.85723 13.38 8.49006 14.3406 8.50395L14.3406 8.50378Z" fill="white"/>
</g>
<path d="M49.5156 6.04529H52.5L60.1127 24.9891L67.7093 6.04529H70.7097L61.2617 29.2822H58.9317L49.5156 6.04529ZM48.5421 6.04529H51.1754L51.6063 20.2172V29.2822H48.5421V6.04529ZM69.034 6.04529H71.6673V29.2822H68.6031V20.2172L69.034 6.04529Z" fill="#292019"/>
<path d="M90.696 26.7765V29.2822H78.3913V26.7765H90.696ZM79.0137 6.04529V29.2822H75.9335V6.04529H79.0137ZM89.0681 16.0359V18.5415H78.3913V16.0359H89.0681ZM90.5364 6.04529V8.56687H78.3913V6.04529H90.5364Z" fill="#292019"/>
<path d="M101.649 18.4138H95.7602L95.7283 15.9401H101.075C101.958 15.9401 102.729 15.7912 103.389 15.4932C104.048 15.1953 104.559 14.7698 104.921 14.2165C105.293 13.6526 105.479 12.9823 105.479 12.2056C105.479 11.3544 105.315 10.6629 104.985 10.1309C104.666 9.58827 104.171 9.19461 103.5 8.9499C102.841 8.69455 102 8.56687 100.979 8.56687H96.4464V29.2822H93.3663V6.04529H100.979C102.171 6.04529 103.235 6.16764 104.171 6.41235C105.107 6.64642 105.9 7.01881 106.549 7.52951C107.208 8.02957 107.708 8.66795 108.049 9.44464C108.389 10.2213 108.56 11.1523 108.56 12.2375C108.56 13.1951 108.315 14.0622 107.825 14.8389C107.336 15.605 106.655 16.2327 105.783 16.7221C104.921 17.2115 103.91 17.5254 102.75 17.6637L101.649 18.4138ZM101.506 29.2822H94.5473L96.2868 26.7765H101.506C102.484 26.7765 103.314 26.6063 103.995 26.2658C104.687 25.9254 105.213 25.4466 105.575 24.8295C105.937 24.2017 106.118 23.4623 106.118 22.6111C106.118 21.7493 105.964 21.0046 105.655 20.3768C105.346 19.7491 104.862 19.265 104.203 18.9245C103.543 18.584 102.692 18.4138 101.649 18.4138H97.2604L97.2923 15.9401H103.293L103.947 16.8338C105.065 16.9296 106.011 17.2488 106.788 17.7914C107.565 18.3234 108.155 19.0043 108.56 19.8342C108.975 20.6641 109.182 21.5791 109.182 22.5792C109.182 24.0262 108.863 25.2497 108.224 26.2499C107.597 27.2394 106.708 27.9948 105.559 28.5161C104.41 29.0268 103.059 29.2822 101.506 29.2822Z" fill="#292019"/>
<path d="M127.349 26.7765V29.2822H115.044V26.7765H127.349ZM115.667 6.04529V29.2822H112.586V6.04529H115.667ZM125.721 16.0359V18.5415H115.044V16.0359H125.721ZM127.189 6.04529V8.56687H115.044V6.04529H127.189Z" fill="#292019"/>
<path d="M144.111 26.7765V29.2822H132.493V26.7765H144.111ZM133.099 6.04529V29.2822H130.019V6.04529H133.099Z" fill="#292019"/>
<defs>
<clipPath id="clip0_19_27">
<rect width="22" height="22" fill="white" transform="matrix(-0.718551 0.695474 0.695474 0.718551 18.4642 1.1637)"/>
</clipPath>
</defs>
</svg>
