<svg width="19" height="19" viewBox="0 0 19 19" fill="none" xmlns="http://www.w3.org/2000/svg">
<path fill-rule="evenodd" clip-rule="evenodd" d="M15.8725 14.8116C17.1999 13.2436 18.0002 11.2153 18.0002 9C18.0002 4.02944 13.9708 0 9.00024 0C4.02968 0 0.000244141 4.02944 0.000244141 9C0.000244141 13.9706 4.02968 18 9.00024 18C11.2155 18 13.2439 17.1996 14.8119 15.8723L17.4699 18.5303C17.7628 18.8232 18.2377 18.8232 18.5306 18.5303C18.8235 18.2374 18.8235 17.7626 18.5306 17.4697L15.8725 14.8116ZM16.5002 9C16.5002 13.1421 13.1424 16.5 9.00024 16.5C4.85811 16.5 1.50024 13.1421 1.50024 9C1.50024 4.85786 4.85811 1.5 9.00024 1.5C13.1424 1.5 16.5002 4.85786 16.5002 9Z" fill="black"/>
</svg>
